<svg xmlns="http://www.w3.org/2000/svg" viewBox="0 0 159 38" fill="currentColor"><path fill-rule="evenodd" clip-rule="evenodd" d="M17.325 0.40625C7.75666 0.40625 0 8.10289 0 17.5972C0 22.0007 1.66948 26.0165 4.41312 29.0584L2.45652 37.5933C5.54781 34.6317 10.4333 30.5639 12.1221 28.4275C12.7669 27.6122 12.6431 27.0932 12.6431 27.0932C10.6351 26.3214 8.72073 24.7295 7.60715 23.245C7.31819 22.86 6.15231 20.9367 7.09162 20.3678C8.15659 19.7207 8.56203 21.7814 11.2681 23.4516C11.2956 23.469 11.3277 23.4907 11.3635 23.5144C11.5249 23.5936 11.6717 23.6583 11.7937 23.7037C15.0354 24.9079 18.0001 23.5909 19.4522 22.2638C20.974 20.8703 21.7684 19.7525 22.6362 17.9576C22.9132 17.3851 23.6791 15.6712 24.5304 16.1827C25.4421 16.7298 24.1268 20.143 23.714 20.8794C23.1407 21.8997 21.3445 24.9926 20.3154 26.2094C20.2245 26.317 20.1741 26.4515 20.1732 26.5918C20.1576 28.739 19.9099 30.8179 19.3164 32.2969C18.9789 33.1389 18.6752 33.9333 18.3679 34.758C27.4511 34.2239 34.6508 26.7465 34.6508 17.599C34.6508 8.4515 26.8932 0.40625 17.325 0.40625ZM14.9207 23.1149C13.21 23.1149 11.8148 21.7305 11.8148 20.0329C11.8148 18.3354 13.21 16.9509 14.9207 16.9509C16.6315 16.9509 18.0267 18.3354 18.0267 20.0329C18.0267 21.7305 16.6315 23.1149 14.9207 23.1149ZM20.3502 10.9418C20.7208 11.8702 19.9081 13.2337 19.3971 12.3672C19.2669 12.1469 19.3155 11.8475 19.4448 11.5626C19.4063 11.5826 19.3742 11.5999 19.3494 11.6126C18.6697 11.9676 17.2764 11.4952 17.2608 10.6433C17.2277 8.80558 19.3586 9.61564 20.1438 10.5923C19.6705 9.43452 20.0026 7.19451 21.6004 8.12292C22.3416 8.55344 22.0739 9.98973 21.4291 10.4048C21.406 10.4184 21.3758 10.4385 21.3391 10.4621C21.6509 10.4894 21.9389 10.595 22.0682 10.8144C22.5783 11.6818 20.9822 11.7155 20.3484 10.9409M23.6736 6.49184C24.0195 5.35499 25.1678 6.27066 25.4569 7.02522C25.3954 6.2197 26.0458 4.909 26.8438 5.79281C27.2125 6.2033 26.7639 7.03433 26.2832 7.16267C26.2668 7.16812 26.2448 7.17266 26.2173 7.18086C26.4043 7.25823 26.5594 7.38019 26.5951 7.54039C26.7365 8.17388 25.7495 7.88171 25.5127 7.28008C25.5549 7.92359 24.7844 8.60259 24.6432 7.9691C24.6073 7.8089 24.6965 7.63505 24.8321 7.48486C24.8046 7.49034 24.7808 7.49306 24.7643 7.49669C24.2762 7.58136 23.5139 7.01884 23.6736 6.49184ZM27.4584 14.6982C27.4263 14.6845 27.3813 14.6682 27.3289 14.6472C27.5381 14.9967 27.6454 15.3799 27.5098 15.6839C26.9723 16.8845 25.7155 15.2298 26.0595 13.97C25.3496 15.0696 23.27 15.257 23.8057 14.0565C23.9424 13.7507 24.2992 13.5732 24.7028 13.4931C24.6515 13.4676 24.6092 13.4476 24.5771 13.4303C23.6783 12.9861 23.1185 11.1575 24.0176 10.4903C25.9577 9.05133 26.72 11.9139 26.2759 13.4876C27.1521 12.105 29.8021 10.7416 30.0305 13.1345C30.1359 14.244 28.3949 15.0595 27.4593 14.6982" fill="currentColor"/><path d="M55.2063 5.61768H57.8912L52.6986 17.3938H51.9039L46.6943 5.61768H49.3972L52.3108 12.6273L55.2074 5.61768H55.2063Z" fill="currentColor"/><path d="M58.4558 11.4009C58.4317 9.75395 59.035 8.33427 60.2663 7.14293C61.4963 5.95159 62.9532 5.37336 64.6368 5.40823C66.3204 5.37336 67.7828 5.95159 69.0256 7.14293C70.2668 8.33427 70.8768 9.75395 70.8531 11.4009C70.8768 13.0478 70.2668 14.4676 69.0256 15.6589C67.7828 16.8502 66.3204 17.4284 64.6368 17.3936C62.9532 17.4284 61.4963 16.8502 60.2663 15.6589C59.035 14.4676 58.4317 13.0478 58.4558 11.4009ZM68.3986 11.4009C68.3986 10.3029 68.0426 9.39396 67.3305 8.67624C66.6173 7.95738 65.7263 7.59855 64.6548 7.59855C63.5836 7.59855 62.6766 7.95514 61.9702 8.66725C61.2639 9.38046 60.9113 10.2917 60.9113 11.4009C60.9113 12.5101 61.2639 13.4225 61.9702 14.1345C62.6766 14.8478 63.5711 15.2033 64.6548 15.2033C65.7388 15.2033 66.6186 14.8467 67.3305 14.1345C68.0426 13.4225 68.3986 12.5112 68.3986 11.4009Z" fill="currentColor"/><path d="M72.8652 17.1834V5.61768H75.2495V17.1834H72.8652Z" fill="currentColor"/><path d="M77.2457 11.4005C77.2219 9.74119 77.8286 8.31923 79.0643 7.13351C80.3 5.94781 81.7671 5.37183 83.462 5.40784C84.5684 5.40784 85.573 5.66206 86.4732 6.17056C87.3734 6.67904 88.0832 7.38214 88.6013 8.2821L86.7996 9.54431C85.9629 8.24723 84.8507 7.59926 83.462 7.59926C82.3792 7.59926 81.4814 7.96149 80.7693 8.68596C80.0564 9.41045 79.7002 10.3217 79.7002 11.4196C79.7002 12.5176 80.0564 13.4232 80.7693 14.1353C81.4814 14.8485 82.3792 15.204 83.462 15.204C84.8507 15.204 85.9642 14.556 86.7996 13.2589L88.6013 14.5211C88.0954 15.4211 87.3893 16.1242 86.4823 16.6327C85.5754 17.1412 84.5629 17.3954 83.4439 17.3954C81.7376 17.4303 80.2671 16.8554 79.0371 15.6697C77.8069 14.484 77.2094 13.0621 77.2446 11.4027L77.2457 11.4005Z" fill="currentColor"/><path d="M90.6328 17.1834V5.61768H98.4737V7.75511H93.0171V10.1029H97.0259V12.1177H93.0171V15.0437H98.6857V17.1812H90.6328V17.1834Z" fill="currentColor"/><path d="M99.9395 14.835L101.582 13.6088C102.407 14.7304 103.36 15.2906 104.443 15.2906C104.961 15.2906 105.367 15.177 105.661 14.9487C105.956 14.7214 106.104 14.4087 106.104 14.0116C106.104 13.6842 106.003 13.4311 105.803 13.2488C105.602 13.0677 105.209 12.8427 104.619 12.5739L103.366 12.0136C101.481 11.1845 100.539 10.0742 100.539 8.68376C100.539 7.7028 100.904 6.91082 101.634 6.30897C102.365 5.70711 103.288 5.40674 104.406 5.40674C105.277 5.40674 106.044 5.60249 106.702 5.99397C107.361 6.38545 107.879 6.91981 108.255 7.59703L106.631 8.84125C106.03 7.95365 105.289 7.50929 104.405 7.50929C103.981 7.50929 103.634 7.60829 103.363 7.80741C103.092 8.00653 102.958 8.28102 102.958 8.63088C102.958 8.92336 103.054 9.15962 103.249 9.34072C103.444 9.52185 103.799 9.72883 104.317 9.96282L105.641 10.5411C106.642 10.9854 107.372 11.4669 107.831 11.9866C108.291 12.5064 108.521 13.1521 108.521 13.9227C108.521 14.9622 108.138 15.8003 107.374 16.437C106.608 17.0737 105.631 17.3921 104.442 17.3921C103.464 17.3921 102.584 17.1648 101.801 16.7092C101.019 16.2536 100.398 15.6293 99.9385 14.8339L99.9395 14.835Z" fill="currentColor"/><path d="M46.6511 27.4092C46.6273 25.7622 47.2305 24.3426 48.4618 23.1512C49.6918 21.9599 51.1488 21.3817 52.8324 21.4165C54.5159 21.3817 55.9784 21.9599 57.2209 23.1512C58.4624 24.3426 59.0724 25.7622 59.0486 27.4092C59.0724 29.0562 58.4624 30.4758 57.2209 31.6672C55.9784 32.8585 54.5159 33.4367 52.8324 33.4019C51.1488 33.4367 49.6918 32.8585 48.4618 31.6672C47.2305 30.4758 46.6273 29.0562 46.6511 27.4092ZM56.5939 27.4092C56.5939 26.3114 56.2379 25.4023 55.5261 24.6844C54.8129 23.9657 53.9218 23.6068 52.8504 23.6068C51.7792 23.6068 50.8719 23.9634 50.1658 24.6756C49.4594 25.3887 49.1069 26.2999 49.1069 27.4092C49.1069 28.5183 49.4594 29.4307 50.1658 30.1429C50.8719 30.8561 51.7666 31.2115 52.8504 31.2115C53.9344 31.2115 54.8139 30.855 55.5261 30.1429C56.2379 29.4307 56.5939 28.5196 56.5939 27.4092Z" fill="currentColor"/><path d="M61.0635 33.1916V21.626H68.7275V23.7634H63.4477V26.6546H67.7741V28.7921H63.4477V33.1905H61.0635V33.1916Z" fill="currentColor"/><path d="M74.2545 27.4092C74.2307 25.751 74.8373 24.328 76.0731 23.1422C77.3088 21.9565 78.7759 21.3817 80.4707 21.4165C81.5772 21.4165 82.5805 21.6708 83.482 22.1793C84.3832 22.6878 85.092 23.3909 85.6101 24.2909L83.8084 25.553C82.9717 24.2559 81.8595 23.608 80.4707 23.608C79.388 23.608 78.4902 23.9702 77.777 24.6946C77.0639 25.419 76.709 26.3304 76.709 27.4283C76.709 28.5264 77.0649 29.4318 77.777 30.1452C78.4902 30.8584 79.387 31.2138 80.4707 31.2138C81.8595 31.2138 82.973 30.5659 83.8084 29.2688L85.6101 30.5309C85.1032 31.4308 84.3968 32.1341 83.4898 32.6425C82.5829 33.151 81.5704 33.4054 80.4527 33.4054C78.7451 33.4401 77.2759 32.8653 76.0459 31.6794C74.8146 30.4939 74.2182 29.0719 74.2534 27.4126L74.2545 27.4092Z" fill="currentColor"/><path d="M87.6416 33.1916V21.626H90.0258V26.0595H95.1832V21.626H97.5674V33.1916H95.1832V28.1969H90.0258V33.1916H87.6416Z" fill="currentColor"/><path d="M100.233 33.1916V21.626H102.618V33.1916H100.233Z" fill="currentColor"/><path d="M105.285 33.1916V21.626H107.669V31.0544H112.773V33.1916H105.285Z" fill="currentColor"/><path d="M114.537 33.1919V21.6262H118.352C120.212 21.6026 121.742 22.1314 122.944 23.2124C124.144 24.2936 124.734 25.6806 124.71 27.3749C124.734 29.0566 124.139 30.4538 122.927 31.5631C121.715 32.6732 120.19 33.2156 118.353 33.1932H114.538L114.537 33.1919ZM116.921 31.0533H118.334C119.511 31.0533 120.459 30.7183 121.177 30.0453C121.895 29.3739 122.254 28.4829 122.254 27.3736C122.254 26.2645 121.902 25.3701 121.195 24.7276C120.489 24.0854 119.536 23.7637 118.335 23.7637H116.922V31.0533H116.921Z" fill="currentColor"/><path d="M136.561 33.1916H133.876L130.856 29.1081H129.107V33.1916H126.723V21.626H131.102C132.327 21.626 133.334 21.9702 134.122 22.6598C134.912 23.3494 135.306 24.2482 135.306 25.3586C135.306 26.083 135.126 26.7345 134.766 27.3127C134.407 27.8909 133.904 28.3374 133.256 28.6537L136.559 33.1929L136.561 33.1916ZM129.108 23.7117V27.0236H131.103C131.657 27.0236 132.09 26.8716 132.402 26.5679C132.713 26.2642 132.87 25.8615 132.87 25.3586C132.87 24.8559 132.708 24.4709 132.385 24.1672C132.061 23.8635 131.634 23.7117 131.105 23.7117H129.109H129.108Z" fill="currentColor"/><path d="M138.026 33.1916V21.626H145.869V23.7634H140.411V26.1112H144.419V28.1259H140.411V31.052H146.079V33.1895H138.026V33.1916Z" fill="currentColor"/><path d="M155.687 21.6269H158.071V33.4029H157.277L150.53 26.2528V33.1925H148.146V21.4165H148.923L155.687 28.5308V21.6257V21.6269Z" fill="currentColor"/></svg>