<svg xmlns="http://www.w3.org/2000/svg" id="Layer_1" viewBox="0 0 45 45"><defs><style>.cls-1{fill:#ffd800;}.cls-1,.cls-2{stroke-width:0px;}.cls-2{fill:#0056b9;}</style></defs><rect class="cls-2" x="0" y="0" width="45" height="22.5"/><rect class="cls-1" x="0" y="22.5" width="45" height="22.5"/><path class="cls-1" d="m42.16,2.84v39.31H2.84V2.84h39.31M45,0H0v45h45V0h0Z"/><polygon class="cls-2" points="22.5 22.31 15.46 22.31 15.46 23.68 19.68 27.03 21.4 38.46 22.5 38.98 22.5 38.98 22.5 38.98 22.5 38.98 22.5 38.98 23.6 38.46 25.32 27.03 29.54 23.68 29.54 22.31 22.5 22.31"/><path class="cls-1" d="m22.51,24.63c1.7-.96,3.68-2.38,4.76-3.58.82-.91,1.04-2.01.84-3.06-.19-.97-.51-1.86-1.47-2.66-.35-.29-.93-.55-1.53-.64.45.87.53,1.84.37,2.43-.17.65-.61,1.24-1.22,1.54-.3-.25-.66-.66-.8-1.06-.23-.65-.18-1.31.14-1.99.86-1.8,1.46-3.9,1.23-5.4-.14-.92-.65-1.81-1.54-2.52-.66-.52-1.36-.79-1.87-.94.16.2,1.04,1.34,1.12,2.35.08,1.1-.64,1.94-1.46,2.85-.75.84-2.6,2.56-3.59,4.05-.8,1.21-1.12,2.91-.66,4.05.58,1.43,2.26,2.64,3.99,3.6.93.51,1.69.98,1.69.98Z"/><path class="cls-2" d="m20.03,16.17c-.42.48-.98,1.28-1.04,2.07-.06.94.43,1.86,1.28,2.53.93.73,2.13.77,2.72.5-.86-.53-1.79-1.26-2.21-2.23-.25-.57-.32-1.29-.19-1.98s.35-1.36.58-1.9c0,0-.82.65-1.14,1.01Z"/></svg>