<svg width="478" height="253" viewBox="0 0 478 253" fill="none" xmlns="http://www.w3.org/2000/svg">
<g clip-path="url(#clip0_2211_14573)">
<path d="M268.2 214.3V244.4H280.2V252.9H258.1V214.3H268.1H268.2Z" fill="black"/>
<path d="M307.399 222.799H295.499V229.299H306.799V237.799H295.499V244.499H307.399V252.999H285.399V214.399H307.399V222.899V222.799Z" fill="black"/>
<path d="M324.6 214.3V244.4H336.6V252.9H314.5V214.3H324.5H324.6Z" fill="black"/>
<path d="M363.8 222.799H351.9V229.299H363.2V237.799H351.9V244.499H363.8V252.999H341.8V214.399H363.8V222.899V222.799Z" fill="black"/>
<path d="M381 230.299L393.2 214.399H405.6L390.3 232.699L407 252.999H394L381 236.299V252.999H371V214.399H381V230.299Z" fill="black"/>
<path d="M435.199 246.2H420.899L418.599 252.9H407.899L422.599 214.3H433.599L448.299 252.9H437.599L435.299 246.2H435.199ZM432.599 238.6L428.099 225.7L423.599 238.6H432.599Z" fill="black"/>
<path d="M221.5 175.2L169 221.4L235.2 237.6L221.5 175.2Z" fill="black"/>
<path d="M49.3 109.3L0 181.7L93.7 158L49.3 109.3Z" fill="black"/>
<path d="M54.5004 106C58.3004 103.5 151.9 84.7998 151.9 84.7998L98.3004 155.1C98.3004 155.1 54.5004 106 54.4004 106H54.5004Z" fill="black"/>
<path d="M217.7 112.6L290.6 109.3L234 206.9L217.7 112.6Z" fill="black"/>
<path d="M258.4 104.6H290.9L316.7 50.4004L258.4 104.6Z" fill="black"/>
<path d="M283.2 46.3L282.9 73.8L363.3 0L283.2 46.3Z" fill="black"/>
<path d="M159.3 86.5996L103.2 155.8L210.6 109.3L159.3 86.5996Z" fill="black"/>
<path d="M110.7 156.9C113.2 158.4 214.8 112.6 214.8 112.6L187.3 190.9L110.8 157L110.7 156.9Z" fill="black"/>
<path d="M295.8 111.1L245.6 201.1L316.3 193.6L295.8 111.1Z" fill="black"/>
<path d="M302.2 111.1L369.7 109.3L322.6 194.2L302.2 111.1Z" fill="black"/>
<path d="M329.8 194.2L376.5 109.3L477.1 194.2H329.8Z" fill="black"/>
<path d="M214.2 126.8C213.5 128.6 194 188.4 194 188.4L221 167.9L214.3 126.8H214.2Z" fill="black"/>
</g>
<defs>
<clipPath id="clip0_2211_14573">
<rect width="477.1" height="253" fill="white"/>
</clipPath>
</defs>
</svg>
