<svg width="16" height="16" viewBox="0 0 16 16" fill="none" xmlns="http://www.w3.org/2000/svg">
<path fill-rule="evenodd" clip-rule="evenodd" d="M8.00003 0C3.58879 0 0 3.58879 0 8.00003C0 12.4113 3.58872 16.0001 7.99997 16.0001C12.4112 16.0001 16 12.4113 16 8.00003C16 3.58879 12.4112 0 8.00003 0ZM8.00003 14.0435C4.66761 14.0435 1.95652 11.3325 1.95652 8.00003C1.95652 4.66762 4.66761 1.95652 8.00003 1.95652C11.3324 1.95652 14.0435 4.66762 14.0435 8.00003C14.0435 11.3325 11.3324 14.0435 8.00003 14.0435ZM8.9783 7.11953H7.02178V12.2717H8.9783V7.11953ZM7.02178 3.72865H8.9783V5.61995H7.02178V3.72865Z" fill="#BDBDBD"/>
</svg>
