<svg width="25" height="24" viewBox="0 0 25 24" fill="none" xmlns="http://www.w3.org/2000/svg">
<g clip-path="url(#clip0_305_3748)">
<path d="M12.6667 2.16094C15.873 2.16094 16.2527 2.175 17.5136 2.23125C18.6855 2.28281 19.3183 2.47969 19.7402 2.64375C20.298 2.85938 20.7011 3.12188 21.1183 3.53906C21.5402 3.96094 21.798 4.35938 22.0136 4.91719C22.1777 5.33906 22.3746 5.97656 22.4261 7.14375C22.4824 8.40937 22.4964 8.78906 22.4964 11.9906C22.4964 15.1969 22.4824 15.5766 22.4261 16.8375C22.3746 18.0094 22.1777 18.6422 22.0136 19.0641C21.798 19.6219 21.5355 20.025 21.1183 20.4422C20.6964 20.8641 20.298 21.1219 19.7402 21.3375C19.3183 21.5016 18.6808 21.6984 17.5136 21.75C16.248 21.8062 15.8683 21.8203 12.6667 21.8203C9.4605 21.8203 9.08081 21.8062 7.81987 21.75C6.648 21.6984 6.01519 21.5016 5.59331 21.3375C5.0355 21.1219 4.63237 20.8594 4.21519 20.4422C3.79331 20.0203 3.5355 19.6219 3.31987 19.0641C3.15581 18.6422 2.95894 18.0047 2.90737 16.8375C2.85112 15.5719 2.83706 15.1922 2.83706 11.9906C2.83706 8.78438 2.85112 8.40469 2.90737 7.14375C2.95894 5.97187 3.15581 5.33906 3.31987 4.91719C3.5355 4.35938 3.798 3.95625 4.21519 3.53906C4.63706 3.11719 5.0355 2.85938 5.59331 2.64375C6.01519 2.47969 6.65269 2.28281 7.81987 2.23125C9.08081 2.175 9.4605 2.16094 12.6667 2.16094ZM12.6667 0C9.40894 0 9.00112 0.0140625 7.72144 0.0703125C6.44644 0.126563 5.56987 0.332812 4.8105 0.628125C4.01831 0.9375 3.348 1.34531 2.68237 2.01562C2.01206 2.68125 1.60425 3.35156 1.29487 4.13906C0.999561 4.90313 0.793311 5.775 0.737061 7.05C0.680811 8.33437 0.666748 8.74219 0.666748 12C0.666748 15.2578 0.680811 15.6656 0.737061 16.9453C0.793311 18.2203 0.999561 19.0969 1.29487 19.8563C1.60425 20.6484 2.01206 21.3188 2.68237 21.9844C3.348 22.65 4.01831 23.0625 4.80581 23.3672C5.56987 23.6625 6.44175 23.8687 7.71675 23.925C8.99644 23.9812 9.40425 23.9953 12.6621 23.9953C15.9199 23.9953 16.3277 23.9812 17.6074 23.925C18.8824 23.8687 19.7589 23.6625 20.5183 23.3672C21.3058 23.0625 21.9761 22.65 22.6417 21.9844C23.3074 21.3188 23.7199 20.6484 24.0246 19.8609C24.3199 19.0969 24.5261 18.225 24.5824 16.95C24.6386 15.6703 24.6527 15.2625 24.6527 12.0047C24.6527 8.74688 24.6386 8.33906 24.5824 7.05938C24.5261 5.78438 24.3199 4.90781 24.0246 4.14844C23.7292 3.35156 23.3214 2.68125 22.6511 2.01562C21.9855 1.35 21.3152 0.9375 20.5277 0.632812C19.7636 0.3375 18.8917 0.13125 17.6167 0.075C16.3324 0.0140625 15.9246 0 12.6667 0Z" fill="#BDBDBD"/>
<path d="M12.6667 5.83594C9.26362 5.83594 6.50269 8.59688 6.50269 12C6.50269 15.4031 9.26362 18.1641 12.6667 18.1641C16.0699 18.1641 18.8308 15.4031 18.8308 12C18.8308 8.59688 16.0699 5.83594 12.6667 5.83594ZM12.6667 15.9984C10.4589 15.9984 8.66831 14.2078 8.66831 12C8.66831 9.79219 10.4589 8.00156 12.6667 8.00156C14.8746 8.00156 16.6652 9.79219 16.6652 12C16.6652 14.2078 14.8746 15.9984 12.6667 15.9984Z" fill="#BDBDBD"/>
<path d="M20.5136 5.59214C20.5136 6.38902 19.8667 7.0312 19.0746 7.0312C18.2777 7.0312 17.6355 6.38433 17.6355 5.59214C17.6355 4.79526 18.2824 4.15308 19.0746 4.15308C19.8667 4.15308 20.5136 4.79995 20.5136 5.59214Z" fill="#BDBDBD"/>
</g>
<defs>
<clipPath id="clip0_305_3748">
<rect width="24" height="24" fill="white" transform="translate(0.666748)"/>
</clipPath>
</defs>
</svg>
