<svg width="25" height="24" viewBox="0 0 25 24" fill="none" xmlns="http://www.w3.org/2000/svg">
<g clip-path="url(#clip0_520_2099)">
<path d="M22.7234 0H2.27187C1.29219 0 0.5 0.773438 0.5 1.72969V22.2656C0.5 23.2219 1.29219 24 2.27187 24H22.7234C23.7031 24 24.5 23.2219 24.5 22.2703V1.72969C24.5 0.773438 23.7031 0 22.7234 0ZM7.62031 20.4516H4.05781V8.99531H7.62031V20.4516ZM5.83906 7.43438C4.69531 7.43438 3.77188 6.51094 3.77188 5.37187C3.77188 4.23281 4.69531 3.30937 5.83906 3.30937C6.97813 3.30937 7.90156 4.23281 7.90156 5.37187C7.90156 6.50625 6.97813 7.43438 5.83906 7.43438ZM20.9516 20.4516H17.3937V14.8828C17.3937 13.5562 17.3703 11.8453 15.5422 11.8453C13.6906 11.8453 13.4094 13.2937 13.4094 14.7891V20.4516H9.85625V8.99531H13.2687V10.5609H13.3156C13.7891 9.66094 14.9516 8.70938 16.6813 8.70938C20.2859 8.70938 20.9516 11.0813 20.9516 14.1656V20.4516Z" fill="#828282"/>
</g>
<defs>
<clipPath id="clip0_520_2099">
<rect width="24" height="24" fill="white" transform="translate(0.5)"/>
</clipPath>
</defs>
</svg>