<svg width="25" height="20" viewBox="0 0 25 20" fill="none" xmlns="http://www.w3.org/2000/svg">
<path d="M8.2169 19.75C17.2713 19.75 22.225 12.2467 22.225 5.74186C22.225 5.53092 22.2203 5.3153 22.211 5.10436C23.1746 4.40746 24.0062 3.54425 24.6667 2.5553C23.7693 2.9546 22.8164 3.21538 21.8407 3.32874C22.868 2.71291 23.6373 1.74547 24.0058 0.605767C23.0393 1.17856 21.9823 1.58261 20.8802 1.80061C20.1376 1.01156 19.1557 0.489116 18.0864 0.314051C17.0171 0.138986 15.9199 0.32105 14.9645 0.832096C14.009 1.34314 13.2485 2.15471 12.8006 3.14131C12.3526 4.12792 12.2422 5.23462 12.4863 6.2903C10.5292 6.19209 8.61468 5.6837 6.86673 4.7981C5.11877 3.91249 3.57644 2.66944 2.33972 1.14952C1.71115 2.23324 1.5188 3.51565 1.80178 4.73609C2.08475 5.95654 2.82181 7.02345 3.86315 7.71999C3.08138 7.69517 2.31672 7.48468 1.63237 7.10592V7.16686C1.63167 8.30415 2.02485 9.40659 2.74506 10.2868C3.46527 11.167 4.46807 11.7706 5.583 11.995C4.8588 12.1931 4.09873 12.222 3.36159 12.0794C3.6762 13.0574 4.28832 13.9129 5.11252 14.5263C5.93672 15.1398 6.93187 15.4806 7.95909 15.5012C6.21517 16.8711 4.06092 17.6141 1.84331 17.6106C1.45004 17.61 1.05715 17.5859 0.666748 17.5384C2.9196 18.9837 5.54028 19.7514 8.2169 19.75Z" fill="#BDBDBD"/>
</svg>
