<svg width="25" height="24" viewBox="0 0 25 24" fill="none" xmlns="http://www.w3.org/2000/svg">
<g clip-path="url(#clip0_520_2083)">
<path d="M24.5 11.6913C24.5 18.1477 19.2253 23.3817 12.7172 23.3817C10.6519 23.3817 8.71182 22.8535 7.02297 21.9285L0.5 24L2.62632 17.7259C1.55416 15.965 0.936691 13.8974 0.936691 11.6905C0.937474 5.23403 6.21063 0 12.7187 0C19.2261 0.0015652 24.5 5.23481 24.5 11.6913ZM12.7164 1.86415C7.25462 1.86415 2.8118 6.27332 2.8118 11.6936C2.8118 13.8442 3.51301 15.8351 4.69865 17.4551L3.46214 21.1044L7.26714 19.8953C8.83234 20.922 10.7051 21.5199 12.7164 21.5199C18.1782 21.5199 22.6225 17.1116 22.6225 11.6913C22.6241 6.27332 18.1789 1.86415 12.7164 1.86415ZM18.6673 14.3842C18.5937 14.266 18.4012 14.194 18.1132 14.05C17.826 13.906 16.404 13.2134 16.1403 13.1195C15.8742 13.0232 15.6817 12.9747 15.4891 13.2619C15.299 13.5492 14.7449 14.194 14.5751 14.3865C14.4068 14.5783 14.2385 14.6025 13.9498 14.4609C13.661 14.3153 12.7297 14.0148 11.6262 13.0389C10.7677 12.2782 10.1878 11.3414 10.0203 11.0542C9.85051 10.7678 10.0031 10.6128 10.1463 10.4704C10.2755 10.3413 10.4351 10.1355 10.5799 9.9672C10.7247 9.8005 10.7724 9.68233 10.8687 9.49059C10.9634 9.29885 10.9156 9.13216 10.8444 8.98738C10.7724 8.84338 10.1956 7.4347 9.95381 6.86106C9.71355 6.28819 9.47329 6.38289 9.30425 6.38289C9.13599 6.38289 8.94347 6.35941 8.75095 6.35941C8.55843 6.35941 8.24539 6.42906 7.98166 6.71627C7.71792 7.00349 6.97132 7.69609 6.97132 9.10634C6.97132 10.5181 8.00514 11.8791 8.14992 12.07C8.29548 12.2602 10.1487 15.249 13.0842 16.3963C16.0213 17.5428 16.0213 17.1601 16.5503 17.1116C17.0809 17.063 18.2595 16.419 18.499 15.7506C18.7401 15.0791 18.7401 14.5039 18.6673 14.3842Z" fill="#828282"/>
</g>
<defs>
<clipPath id="clip0_520_2083">
<rect width="24" height="24" fill="white" transform="translate(0.5)"/>
</clipPath>
</defs>
</svg>